<?xml version="1.0" encoding="UTF-8"?>
<svg version="1.1" xmlns="http://www.w3.org/2000/svg" width="1024" height="1024">
<path d="M0 0 C337.92 0 675.84 0 1024 0 C1024 337.92 1024 675.84 1024 1024 C686.08 1024 348.16 1024 0 1024 C0 686.08 0 348.16 0 0 Z " fill="#6785F3" transform="translate(0,0)"/>
<path d="M0 0 C337.92 0 675.84 0 1024 0 C1024 337.92 1024 675.84 1024 1024 C686.08 1024 348.16 1024 0 1024 C0 686.08 0 348.16 0 0 Z M160.75 39.5625 C159.69989746 39.8200708 158.64979492 40.0776416 157.56787109 40.34301758 C131.07188148 47.16919082 107.16463125 60.44689293 87.15625 79.0546875 C85 81 85 81 82.71875 82.6328125 C82.1515625 83.08398438 81.584375 83.53515625 81 84 C81 84.66 81 85.32 81 86 C80.13761719 86.34804687 80.13761719 86.34804687 79.2578125 86.703125 C74.42766059 89.47753751 71.33990509 94.62792626 68 99 C67.58911133 99.53737793 67.17822266 100.07475586 66.75488281 100.62841797 C59.96147066 109.61093671 54.22015593 119.02650903 49 129 C48.52949219 129.8971875 48.05898438 130.794375 47.57421875 131.71875 C37.3076826 152.85376904 31.82761254 176.75706373 31.86857224 200.19282436 C31.8665196 201.29357075 31.86446697 202.39431713 31.86235213 203.52841946 C31.85669528 207.21886301 31.85813777 210.90926908 31.85955811 214.59971619 C31.85697372 217.27165206 31.853999 219.94358494 31.8505547 222.61551958 C31.84299144 229.19007175 31.8407825 235.7646158 31.84022565 242.33917187 C31.83931035 250.21624174 31.83263788 258.09330414 31.82587883 265.97037079 C31.80983344 285.00725593 31.80391718 304.04414024 31.79913008 323.08103093 C31.79679264 332.09027367 31.79318983 341.09951577 31.7894347 350.10875802 C31.77660043 380.96045135 31.76588118 411.81214434 31.7624321 442.66384029 C31.76221047 444.59983574 31.76198868 446.5358312 31.76176675 448.47182665 C31.76154611 450.41244289 31.76132563 452.35305912 31.7611053 454.29367536 C31.76066275 458.18675037 31.76021564 462.07982538 31.75976562 465.97290039 C31.75965623 466.93815366 31.75954684 467.90340693 31.75943414 468.89791029 C31.75580427 500.18963182 31.73988622 531.48133018 31.71657526 562.77304283 C31.69196312 595.87204723 31.67825862 628.97103839 31.67706418 662.07005221 C31.67689273 665.7055461 31.67667731 669.34104 31.67642975 672.97653389 C31.67637398 673.87166643 31.67631821 674.76679898 31.67626075 675.68905675 C31.67511151 690.07604523 31.66410035 704.46300986 31.64954269 718.84999029 C31.6351556 733.31893145 31.63195319 747.78784214 31.63998267 762.25678848 C31.64442849 770.84472937 31.64062038 779.4325717 31.62474416 788.02049958 C31.61495501 793.7676338 31.61620975 799.51469939 31.62618039 805.26183307 C31.63154423 808.52947662 31.63068852 811.79689564 31.61967167 815.06453037 C31.57553833 829.04520913 32.09466454 842.30569868 35 856 C35.30410301 857.4997717 35.6070052 858.99978739 35.90870547 860.50004429 C44.51122253 902.61219859 71.11410515 940.28371416 106.59375 964.15234375 C123.22003487 975.02649416 140.74934919 982.70284895 159.9375 987.875 C160.64511475 988.06618408 161.35272949 988.25736816 162.08178711 988.4543457 C177.8276604 992.42460539 193.40272247 992.28850557 209.53352356 992.26742554 C212.24603658 992.27006369 214.95854166 992.27568855 217.67105025 992.28115618 C223.55498072 992.29142117 229.43887831 992.29430609 235.32281685 992.29224396 C244.07323494 992.28918477 252.82361685 992.29753831 261.57402789 992.30799321 C278.11621346 992.32730617 294.6583866 992.33296046 311.20058212 992.33410732 C323.98131051 992.3350276 336.76203404 992.33915048 349.54276085 992.34550858 C353.22623989 992.34730377 356.90971895 992.3490834 360.593198 992.35085833 C361.50902109 992.35130043 362.42484418 992.35174252 363.36841948 992.35219802 C389.12005462 992.36450197 414.87168809 992.37239962 440.6233263 992.37151146 C441.59367653 992.3714803 442.56402675 992.37144914 443.56378153 992.37141704 C448.48151687 992.37125084 453.39925221 992.37105276 458.31698755 992.37084763 C459.78190938 992.37078779 459.78190938 992.37078779 461.27642558 992.37072675 C463.25137887 992.37064587 465.22633216 992.37056228 467.20128544 992.37047596 C497.91016953 992.36925118 528.61900942 992.38425212 559.32788086 992.41162109 C593.86007702 992.44238516 628.39224414 992.45955093 662.92445487 992.45769465 C666.61139182 992.4575454 670.29832877 992.45744798 673.98526573 992.45738602 C674.89302532 992.45736271 675.8007849 992.4573394 676.73605236 992.45731538 C691.30456675 992.457254 705.87304257 992.46999165 720.44154552 992.48725055 C735.10156179 992.50425778 749.76152203 992.50614125 764.42154274 992.4930319 C773.11470893 992.48567611 781.80770417 992.48919898 790.50085202 992.50891658 C796.32688619 992.52100675 802.15279792 992.51822644 807.97882671 992.50397559 C811.28580773 992.49628754 814.5921962 992.496716 817.89919374 992.51089029 C840.10314209 992.59967779 862.06294534 990.93517052 883 983 C883.68465332 982.74347656 884.36930664 982.48695313 885.07470703 982.22265625 C926.95949583 966.30281836 961.61679806 935.00851121 980.3203125 894.03125 C982.35400455 889.40663979 984.22383581 884.72898122 986 880 C986.39703125 878.94296875 986.7940625 877.8859375 987.203125 876.796875 C994.09487948 856.34039743 995.73385898 835.61307046 995.62145996 814.18595886 C995.62302103 811.46862558 995.63212036 808.75132832 995.64082003 806.03400975 C995.65565384 800.17371823 995.65232787 794.31366797 995.63640213 788.45338249 C995.61278535 779.73862958 995.61824132 771.02405511 995.62911103 762.30928552 C995.64761526 746.73801412 995.63805492 731.16685786 995.61663339 715.59559594 C995.59802446 701.97147564 995.58965892 688.34739389 995.59120178 674.72326088 C995.59129346 673.81705203 995.59138513 672.91084318 995.59147959 671.97717346 C995.59187279 668.29797676 995.59232243 664.61878007 995.59285098 660.93958339 C995.59771362 626.48143327 995.57511508 592.02335145 995.53889475 557.56522255 C995.50689186 526.98886146 995.49485417 496.41255865 995.50097656 465.83618164 C995.50136341 463.87195948 995.50174987 461.90773731 995.50213593 459.94351514 C995.50242295 458.48686207 995.50242295 458.48686207 995.50271577 457.00078166 C995.50367019 452.1117917 995.50458455 447.22280173 995.50545502 442.33381176 C995.50562881 441.36916553 995.5058026 440.40451931 995.50598167 439.41064138 C995.51034149 413.81364504 995.50031291 388.21665495 995.48561716 362.61966306 C995.48509702 361.70856679 995.48457688 360.79747051 995.48404097 359.85876526 C995.48352163 358.94938509 995.48300229 358.04000491 995.4824672 357.10306776 C995.48194946 356.19541022 995.48143172 355.28775268 995.48089829 354.35259036 C995.47985021 352.5247663 995.47879 350.69694224 995.47771757 348.86911818 C995.47035238 336.15455593 995.46824591 323.44000258 995.46971158 310.72543846 C995.47156109 294.33981634 995.46342388 277.95424904 995.43807012 261.56864478 C995.4249559 252.91439958 995.41986458 244.2602418 995.42670866 235.60598884 C995.4304426 229.81265493 995.42312328 224.01940025 995.40711627 218.22608749 C995.39831189 214.93399538 995.39562008 211.64211481 995.40304345 208.35001411 C995.43996141 190.21679317 994.87858307 172.15677082 989.25 154.75 C988.99395996 153.93120361 988.73791992 153.11240723 988.47412109 152.26879883 C985.88859614 144.24182698 982.67168428 136.58432901 979 129 C978.71463379 128.39414063 978.42926758 127.78828125 978.13525391 127.1640625 C974.20185223 118.89349203 969.40146522 111.4547725 964 104.0625 C963.43079834 103.28156982 962.86159668 102.50063965 962.27514648 101.69604492 C958.25828751 96.33469773 953.8317907 91.63136586 949 87 C944 82 944 82 942.41015625 80.26953125 C936.32177032 73.82073347 929.33244539 68.91717011 922 64 C920.96875 63.30777344 919.9375 62.61554687 918.875 61.90234375 C898.93478423 49.10906756 876.40315019 40.65674222 853 37 C852.16802904 36.83905924 851.33605808 36.67811848 850.47887588 36.51230073 C838.00258988 34.35223221 825.45753923 34.7223274 812.8369751 34.74603271 C810.16484531 34.7437265 807.49272691 34.74063049 804.82060027 34.73657823 C799.02508994 34.72938198 793.22961693 34.72955722 787.43410492 34.73467255 C778.81554981 34.74225878 770.19702599 34.73835895 761.57847107 34.73225593 C746.18178754 34.72173855 730.78512064 34.72263174 715.38843555 34.72841376 C701.91184578 34.73344967 688.43526209 34.73475604 674.95867157 34.73236847 C674.06389346 34.7322157 673.16911534 34.73206293 672.24722274 34.73190553 C668.61476161 34.73128282 664.98230048 34.73064602 661.34983935 34.729986 C627.28687367 34.72387058 593.22391856 34.72941046 559.16095452 34.7401798 C528.92207599 34.74966745 498.68321431 34.74882418 468.44433594 34.73925781 C434.44874238 34.72853885 400.45315817 34.72430758 366.45756316 34.73048234 C362.83057261 34.73112374 359.20358205 34.73174943 355.57659149 34.73236847 C354.23706615 34.7326057 354.23706615 34.7326057 352.8704797 34.73284773 C339.40771235 34.73511899 325.94495177 34.73246892 312.48218536 34.72740936 C297.16538816 34.72168163 281.84861014 34.72313997 266.53181532 34.73397085 C257.96831142 34.73982721 249.4048491 34.74025033 240.84134631 34.7326785 C235.11067342 34.72817204 229.38003365 34.73102379 223.64936565 34.73968804 C220.3912515 34.74441474 217.13323506 34.74501889 213.87512091 34.73887607 C195.85383662 34.70751833 178.33551931 35.23947962 160.75 39.5625 Z " fill="#FEFEFE" transform="translate(0,0)"/>
<path d="M0 0 C0.73871316 -0.00226556 1.47742633 -0.00453111 2.23852473 -0.00686532 C4.71541359 -0.0131982 7.19224762 -0.01237637 9.66914368 -0.0115509 C11.44508434 -0.01454312 13.22102435 -0.01794579 14.9969635 -0.02172852 C19.82622994 -0.03057328 24.65547866 -0.03290703 29.48475242 -0.0335443 C32.50745372 -0.03425533 35.53015053 -0.03639082 38.55285072 -0.03904152 C49.1152182 -0.04830139 59.67757306 -0.05237621 70.23994446 -0.05158997 C80.05426005 -0.05099123 89.86852031 -0.06150111 99.68282193 -0.07733363 C108.1272624 -0.09046603 116.57168493 -0.09577138 125.01613551 -0.09513456 C130.05077196 -0.09488094 135.08535939 -0.0976553 140.11998558 -0.10831261 C144.86831019 -0.11808808 149.61653995 -0.11800893 154.36486816 -0.11079597 C156.09445651 -0.10976127 157.82405106 -0.11204552 159.55362892 -0.11815643 C201.04249234 -0.2550758 241.19359056 10.8823512 271.74067688 40.13371277 C295.49876665 63.78202918 306.83012428 96.72248233 306.93473816 129.75419617 C306.95626785 167.47211708 296.81459339 201.32270672 270.00630188 228.90715027 C257.68133892 241.14627483 240.70075114 251.26672146 223.68598938 255.13371277 C225.05603848 258.80729645 226.72073185 262.06501482 228.74067688 265.42277527 C229.34903381 266.43654236 229.95739075 267.45030945 230.58418274 268.49479675 C231.56270203 270.11043518 231.56270203 270.11043518 232.56098938 271.75871277 C233.57528015 273.44106018 233.57528015 273.44106018 234.61006165 275.15739441 C239.00754473 282.43661085 243.49302394 289.65570693 248.06123352 296.82878113 C252.27469948 303.45173366 256.39322142 310.13074614 260.49848938 316.82121277 C266.37201552 326.39055091 272.29180733 335.92921022 278.25166321 345.44499207 C282.24919624 351.8293479 286.22645526 358.22572709 290.18598938 364.63371277 C299.55074672 379.78326397 308.99124821 394.88566971 318.49848938 409.94621277 C318.99614807 410.73463562 319.49380676 411.52305847 320.00654602 412.33537292 C321.87345654 415.28810937 323.74801153 418.226746 325.68598938 421.13371277 C326.18925017 424.99204553 326.00268263 426.6422922 323.87348938 429.94621277 C320.15234922 433.66735293 316.6915667 433.27221913 311.6476593 433.31071472 C310.93509476 433.31728592 310.22253021 433.32385712 309.4883728 433.33062744 C307.1310668 433.35033211 304.77382442 433.36201652 302.41645813 433.37199402 C301.61028864 433.37606955 300.80411915 433.38014507 299.97352028 433.3843441 C295.70669944 433.40519252 291.43991066 433.41949968 287.17304993 433.42887878 C282.77132079 433.43994223 278.3700973 433.47434451 273.96854687 433.51405048 C270.57899042 433.54022306 267.18955438 433.54857115 263.79990578 433.55216026 C262.17762651 433.55702439 260.55535256 433.56863351 258.93317223 433.58719826 C256.65921051 433.61160515 254.38655625 433.61062264 252.11250305 433.60368347 C250.82027328 433.60954971 249.52804352 433.61541595 248.19665527 433.62145996 C243.4070855 432.95603087 240.37150663 430.86910477 237.0358429 427.43473816 C232.68399926 421.44712449 229.15372134 415.06881907 225.62348938 408.57121277 C224.62644325 406.75388155 223.62707058 404.93784149 222.62768555 403.12179565 C221.95275611 401.89489824 221.27853157 400.66761279 220.60501099 399.43994141 C217.52894647 393.83429312 214.39979126 388.25982933 211.24848938 382.69621277 C210.7260968 381.77340515 210.20370422 380.85059753 209.66548157 379.89982605 C203.72564451 369.4214642 197.7448383 358.96642667 191.76296997 348.51202393 C188.40037548 342.63525245 185.04121296 336.75652282 181.68241882 330.87757874 C180.68549983 329.13285601 179.68834414 327.38826877 178.69111633 325.64372253 C175.67020229 320.35865809 172.65044596 315.07294805 169.6363678 309.78398132 C168.27184066 307.38979634 166.90642859 304.99611653 165.54096985 302.60246277 C164.62362499 300.99356696 163.70749687 299.38397758 162.79145813 297.77433777 C161.57498544 295.6422121 160.31578868 293.53398497 159.01847839 291.45005798 C157.08463039 288.14570652 155.87244281 284.84934386 154.65769958 281.22312927 C151.9111339 274.05305537 148.9270826 267.8475632 142.68598938 263.13371277 C131.02627702 258.56293032 116.40400482 260.47977309 104.17616272 261.02220154 C99.38397817 261.20871116 94.59050216 261.25681524 89.79536438 261.31730652 C80.4193215 261.45563447 71.05478264 261.74544455 61.68598938 262.13371277 C61.68875476 262.96916217 61.69152014 263.80461157 61.69436932 264.66537762 C61.76060382 284.98767445 61.81025763 305.30995269 61.8414259 325.63233471 C61.85689901 335.46006329 61.87799705 345.28771986 61.91230774 355.11540222 C61.94219646 363.68056817 61.96156115 372.24568196 61.96825486 380.8108986 C61.97216801 385.34670709 61.98137372 389.88236636 62.00317955 394.41812706 C62.02353636 398.68705334 62.02982482 402.95576887 62.02531242 407.22473907 C62.02613799 408.79166878 62.0321085 410.3586055 62.0436058 411.92549324 C62.05853774 414.0653643 62.05494101 416.20444027 62.04675293 418.34432983 C62.04951831 419.54173892 62.05228369 420.73914801 62.05513287 421.97284222 C61.55059623 426.29304571 59.93977619 428.88404653 56.8938446 431.91996765 C53.93770625 433.54507352 51.72796028 433.52849324 48.36030579 433.55363464 C47.07862518 433.56954651 45.79694458 433.58545837 44.47642517 433.60185242 C43.08013463 433.60311982 41.68384274 433.60329645 40.28755188 433.60246277 C38.85032352 433.60956694 37.41309799 433.61726631 35.97587585 433.62553406 C32.96477882 433.63897315 29.95394393 433.64055074 26.94282532 433.63468933 C23.09350484 433.62879871 19.24544806 433.65935859 15.39637184 433.69980621 C12.42795597 433.72572282 9.4598426 433.72855705 6.49132919 433.72491455 C5.07280175 433.72660266 3.65425988 433.73621561 2.23584366 433.75405884 C-10.22839647 433.893584 -10.22839647 433.893584 -14.16801453 430.78410339 C-17.54082745 426.61854513 -17.44194762 423.48577089 -17.45381832 418.27167892 C-17.45676974 417.56626274 -17.45972117 416.86084656 -17.46276203 416.13405412 C-17.47147619 413.75239832 -17.47303577 411.37079095 -17.47463989 408.98912048 C-17.47936927 407.27147724 -17.48451997 405.55383511 -17.49005753 403.83619428 C-17.50398541 399.10203289 -17.51155335 394.3678792 -17.51803052 389.63370252 C-17.52439542 385.5766628 -17.53446632 381.51963577 -17.54459118 377.46260396 C-17.57793496 364.09561797 -17.5994389 350.72862425 -17.61779103 337.36161029 C-17.62258472 333.88234967 -17.62756819 330.40308937 -17.63259625 326.92382908 C-17.66356315 305.32917835 -17.69025507 283.73452496 -17.70701504 262.13985825 C-17.71096469 257.13667038 -17.71496766 252.13348257 -17.71903992 247.1302948 C-17.72004828 245.88674112 -17.72105664 244.64318744 -17.72209556 243.36195031 C-17.73911034 223.20741293 -17.78022813 203.05299816 -17.83106291 182.89852068 C-17.88279649 162.21803531 -17.91195157 141.53761308 -17.91921192 120.85706353 C-17.92387925 109.24089648 -17.93868382 97.6249303 -17.97895622 86.00882721 C-18.01320477 76.1181177 -18.02721648 66.2276453 -18.01453208 56.33687988 C-18.0086933 51.2888353 -18.01265489 46.24129252 -18.04270172 41.19332314 C-18.06997973 36.57290674 -18.06962965 31.95335063 -18.04719127 27.33291581 C-18.04395758 25.66060478 -18.05089926 23.98823702 -18.06898849 22.3160207 C-18.2117899 8.26433843 -18.2117899 8.26433843 -14.51849461 3.65542984 C-10.3641373 -0.36640225 -5.48121825 -0.01232328 0 0 Z " fill="#FEFEFE" transform="translate(366.3140106201172,291.8662872314453)"/>
<path d="M0 0 C17.881875 -0.04125 35.76375 -0.0825 54.1875 -0.125 C62.62413208 -0.15231201 62.62413208 -0.15231201 71.23120117 -0.18017578 C78.15490723 -0.18920898 78.15490723 -0.18920898 81.40693665 -0.19088745 C83.65470677 -0.19393756 85.90247384 -0.2009275 88.15022278 -0.21115112 C119.45289443 -0.34628094 119.45289443 -0.34628094 131.25 5.1875 C131.92619385 5.49647217 132.6023877 5.80544434 133.29907227 6.1237793 C138.82340316 8.73833292 143.56352318 11.7616571 148 16 C149.13501953 17.07507813 149.13501953 17.07507813 150.29296875 18.171875 C162.76803708 30.96038726 167.60228079 47.0365875 167.5625 64.625 C167.55887451 66.31689453 167.55887451 66.31689453 167.55517578 68.04296875 C167.17138989 85.68206926 160.55372656 100.84756018 148.4609375 113.68359375 C142.19790894 119.57879365 135.06360089 123.21292861 127.125 126.3125 C126.51390381 126.55516602 125.90280762 126.79783203 125.27319336 127.04785156 C111.24468535 132.17152722 96.22459667 131.26468747 81.54296875 131.1953125 C79.45137641 131.19236624 77.35978259 131.1903294 75.26818848 131.18920898 C67.57460294 131.17878922 59.88104911 131.15086682 52.1875 131.125 C26.3546875 131.063125 26.3546875 131.063125 0 131 C0 87.77 0 44.54 0 0 Z " fill="#687EF4" transform="translate(428,360)"/>
<path d="M0 0 C1.37806448 -0.0004368 2.75612887 -0.00131371 4.13419282 -0.00258917 C7.8969326 -0.00481273 11.65964362 -0.0008423 15.42237973 0.0041889 C19.48904493 0.00852408 23.55570863 0.0070448 27.62237549 0.00628662 C34.66018683 0.00576333 41.69798888 0.00888979 48.73579788 0.01452446 C58.91117627 0.02266583 69.08655017 0.02525738 79.26193146 0.02651245 C95.77247305 0.02869883 112.28300968 0.03534768 128.79354858 0.04481506 C144.82805354 0.0539999 160.86255715 0.06107549 176.89706421 0.06532288 C177.88611951 0.0655856 178.8751748 0.06584832 179.89420147 0.06611901 C184.85620678 0.06742408 189.81821209 0.06868778 194.78021741 0.06993091 C235.91796536 0.08029062 277.05570786 0.09789767 318.19345093 0.12025452 C318.19345093 0.45025452 318.19345093 0.78025452 318.19345093 1.12025452 C306.17057797 2.2455516 294.20685937 2.26676757 282.14266968 2.25306702 C280.03189584 2.25374218 277.92112208 2.25471397 275.81034851 2.25596619 C271.41224417 2.25743155 267.01416029 2.25532514 262.61605835 2.25062561 C256.9966225 2.24491138 251.37723424 2.24822542 245.7578001 2.25419807 C241.4090896 2.25782015 237.0603903 2.25665783 232.71167946 2.25407028 C230.63975837 2.25340649 228.56783624 2.25421017 226.49591637 2.25654984 C223.59908747 2.25910546 220.70233473 2.25519574 217.80551147 2.24964905 C216.96219269 2.25167328 216.1188739 2.25369751 215.25 2.25578308 C209.82703736 2.2366659 204.57485006 1.79914967 199.19345093 1.12025452 C198.86345093 1.78025452 198.53345093 2.44025452 198.19345093 3.12025452 C198.19345093 2.46025452 198.19345093 1.80025452 198.19345093 1.12025452 C197.53345093 1.12025452 196.87345093 1.12025452 196.19345093 1.12025452 C195.86345093 1.78025452 195.53345093 2.44025452 195.19345093 3.12025452 C195.19345093 2.46025452 195.19345093 1.80025452 195.19345093 1.12025452 C194.6155525 1.19167727 194.03765408 1.26310001 193.44224358 1.33668709 C184.14860491 2.34164486 174.89442072 2.23130656 165.56112671 2.18617249 C163.69212469 2.18097071 161.82312124 2.17626432 159.95411682 2.17201233 C155.94589045 2.1621152 151.93768818 2.14928163 147.92947769 2.13428879 C141.57150437 2.11107645 135.21353407 2.09787638 128.85552979 2.08659363 C110.78095443 2.05328801 92.7064258 2.01177691 74.63192749 1.9488678 C64.63639003 1.91416195 54.64088737 1.89047183 44.64529598 1.87865937 C38.34624532 1.87063421 32.04742524 1.84957099 25.74844861 1.8184545 C21.79994264 1.80225493 17.85149961 1.79903637 13.90296364 1.79922485 C12.09602077 1.79683742 10.28907495 1.7894217 8.48217964 1.77609634 C-6.77421644 1.66844326 -22.14277896 2.62179839 -36.80654907 7.12025452 C-38.26137736 7.44868565 -39.71939622 7.76364331 -41.18154907 8.05775452 C-49.90612839 9.97039417 -62.44537433 12.75907978 -68.80654907 19.12025452 C-71.79500331 20.40102062 -74.82295442 21.54910668 -77.86123657 22.70619202 C-80.91411713 24.1718986 -82.45690846 25.7337568 -84.80654907 28.12025452 C-86.79033907 29.15203805 -88.79147898 30.15098029 -90.80654907 31.12025452 C-104.96131265 40.50237447 -117.26665479 52.27666294 -127.73623657 65.61244202 C-129.94530001 68.28832641 -132.31978082 70.70280385 -134.80654907 73.12025452 C-133.30154139 68.37505382 -130.66032666 65.28236805 -127.43154907 61.62025452 C-126.46481371 60.50618248 -125.49865872 59.39160652 -124.53311157 58.27650452 C-124.06937134 57.74669983 -123.6056311 57.21689514 -123.12783813 56.67103577 C-121.89632868 55.22562777 -120.73482653 53.72137457 -119.57998657 52.21400452 C-118.9947522 51.52306702 -118.40951782 50.83212952 -117.80654907 50.12025452 C-117.14654907 50.12025452 -116.48654907 50.12025452 -115.80654907 50.12025452 C-115.47654907 49.13025452 -115.14654907 48.14025452 -114.80654907 47.12025452 C-112.373101 44.53953725 -109.54518706 42.36839018 -106.80654907 40.12025452 C-106.30929321 39.70678772 -105.81203735 39.29332092 -105.29971313 38.86732483 C-84.28257368 21.46987464 -60.34902167 9.73588932 -33.86904907 3.30775452 C-33.01738159 3.10061829 -32.16571411 2.89348206 -31.28823853 2.68006897 C-20.88574069 0.27809102 -10.65006273 -0.0245686 0 0 Z " fill="#6E37E7" transform="translate(196.80654907226563,35.87974548339844)"/>
<path d="M0 0 C0.33 0 0.66 0 1 0 C1.11467355 45.69108273 1.20266438 91.38215011 1.25532665 137.07334861 C1.2615795 142.47883095 1.26805117 147.884313 1.2746582 153.28979492 C1.27596976 154.36583971 1.27728131 155.4418845 1.2786326 156.5505367 C1.30033489 173.92864801 1.3397276 191.30667585 1.38576398 208.68473779 C1.4326732 226.54243927 1.46032583 244.40009731 1.47044247 262.25785786 C1.47727176 273.25955413 1.49876865 284.26101438 1.53958233 295.26263792 C1.56619971 302.82709429 1.57395847 310.39143029 1.56750689 317.95592999 C1.56433324 322.30743609 1.56887723 326.65853248 1.59602737 331.00996399 C1.77294506 360.85440741 -1.51800056 388.94334133 -15 416 C-15.66 415.34 -16.32 414.68 -17 414 C-16.45472656 413.06607422 -16.45472656 413.06607422 -15.8984375 412.11328125 C-1.72245261 386.05127827 -0.67459473 355.5518988 -0.7825278 326.6224575 C-0.79337158 323.10429237 -0.79233089 319.58612644 -0.7928009 316.06794739 C-0.79514933 309.98038526 -0.80467126 303.89286953 -0.81910515 297.80532455 C-0.84000735 288.94314713 -0.84850858 280.080989 -0.8540265 271.21879019 C-0.86326372 256.75457108 -0.88067628 242.29037466 -0.90405273 227.82617188 C-0.9061427 226.53115561 -0.9061427 226.53115561 -0.9082749 225.2099774 C-0.90967043 224.34583719 -0.91106596 223.48169698 -0.91250378 222.5913707 C-0.91532434 220.84434072 -0.91814291 219.09731074 -0.92095947 217.35028076 C-0.92305246 216.05255584 -0.92305246 216.05255584 -0.92518773 214.72861426 C-0.94041931 205.19505507 -0.95337557 195.6614932 -0.96557617 186.12792969 C-0.96666702 185.2771836 -0.96775787 184.42643752 -0.96888178 183.54991125 C-0.98713439 169.17983632 -1.00100782 154.80975899 -1.01274782 140.43967736 C-1.01954115 132.41774088 -1.02884648 124.39582184 -1.04459953 116.37389755 C-1.12051384 77.56808746 -0.88499889 38.79794457 0 0 Z " fill="#40B2F3" transform="translate(994,480)"/>
<path d="M0 0 C1.53527344 0.01353516 1.53527344 0.01353516 3.1015625 0.02734375 C3.85179687 0.03894531 4.60203125 0.05054688 5.375 0.0625 C2.62500753 2.81249247 0.84619947 2.39268987 -3 2.5625 C-12.16371535 3.0982249 -20.83033861 4.40750788 -29.625 7.0625 C-31.08136779 7.38403574 -32.53988884 7.69591489 -34 8 C-42.72457932 9.91263965 -55.26382526 12.70132526 -61.625 19.0625 C-64.61345424 20.3432661 -67.64140535 21.49135216 -70.6796875 22.6484375 C-73.73256805 24.11414408 -75.27535939 25.67600229 -77.625 28.0625 C-79.60878999 29.09428354 -81.60992991 30.09322578 -83.625 31.0625 C-97.77976358 40.44461995 -110.08510572 52.21890843 -120.5546875 65.5546875 C-122.76375094 68.23057189 -125.13823175 70.64504933 -127.625 73.0625 C-126.11999231 68.3172993 -123.47877759 65.22461353 -120.25 61.5625 C-119.28326463 60.44842796 -118.31710965 59.33385201 -117.3515625 58.21875 C-116.88782227 57.68894531 -116.42408203 57.15914062 -115.94628906 56.61328125 C-114.71477961 55.16787326 -113.55327746 53.66362005 -112.3984375 52.15625 C-111.81320313 51.4653125 -111.22796875 50.774375 -110.625 50.0625 C-109.965 50.0625 -109.305 50.0625 -108.625 50.0625 C-108.295 49.0725 -107.965 48.0825 -107.625 47.0625 C-105.19155193 44.48178274 -102.36363799 42.31063566 -99.625 40.0625 C-99.12774414 39.6490332 -98.63048828 39.23556641 -98.11816406 38.80957031 C-77.10102461 21.41212013 -53.16747259 9.6781348 -26.6875 3.25 C-25.83583252 3.04286377 -24.98416504 2.83572754 -24.10668945 2.62231445 C-16.11624866 0.77729003 -8.2060774 -0.0954195 0 0 Z " fill="#883BE2" transform="translate(189.625,35.9375)"/>
<path d="M0 0 C0.66 0.33 1.32 0.66 2 1 C1.07402389 3.06563902 0.32898764 4.70212008 -1.36328125 6.234375 C-7.85078401 13.23282666 -11.56874108 25.2312272 -15 34 C-15.37125 34.94875 -15.7425 35.8975 -16.125 36.875 C-18.00292824 41.84598651 -19.5338595 46.70214386 -20.5078125 51.9296875 C-21 54 -21 54 -21.98828125 56.36328125 C-23.13615375 59.35484086 -23.61068939 62.14223228 -24.0625 65.3125 C-24.21847656 66.38113281 -24.37445313 67.44976562 -24.53515625 68.55078125 C-24.68855469 69.68902344 -24.84195313 70.82726562 -25 72 C-25.16951172 73.20954346 -25.33902344 74.41908691 -25.51367188 75.6652832 C-26.05802946 80.04901253 -26.18561814 84.39133904 -26.24609375 88.8046875 C-26.27897924 90.45573552 -26.31219162 92.10677706 -26.34570312 93.7578125 C-26.39338229 96.33199337 -26.43796976 98.90613851 -26.47680664 101.48046875 C-26.51634835 103.98461915 -26.56786677 106.48829594 -26.62109375 108.9921875 C-26.6295079 109.76609833 -26.63792206 110.54000916 -26.64659119 111.33737183 C-26.77314796 116.77314796 -26.77314796 116.77314796 -29 119 C-29.61927698 76.55888423 -26.23981698 35.41683557 0 0 Z " fill="#8943E5" transform="translate(61,109)"/>
<path d="M0 0 C0.99 0.495 0.99 0.495 2 1 C1.54786421 5.86045979 0.46858739 8.53141261 -3 12 C-7.85416582 14.69037593 -13.14942685 14.50428699 -18.5625 14.6875 C-19.64772949 14.7280249 -20.73295898 14.7685498 -21.85107422 14.81030273 C-40.55727982 15.3474016 -59.3010981 14.55515119 -78 14 C-78 13.34 -78 12.68 -78 12 C-77.11938904 11.99191315 -76.23877808 11.98382629 -75.33148193 11.97549438 C-67.03269651 11.89755487 -58.73407345 11.81026606 -50.43549728 11.71247292 C-46.16910809 11.66252625 -41.90274347 11.61619608 -37.63623047 11.578125 C-33.51883654 11.54125157 -29.40164893 11.49488606 -25.28443146 11.44193649 C-23.71360137 11.42340347 -22.14272707 11.40829146 -20.57183075 11.39665604 C-18.37156547 11.37977472 -16.17177156 11.35073583 -13.97167969 11.31884766 C-12.71925476 11.30552399 -11.46682983 11.29220032 -10.17645264 11.2784729 C-7.14829773 11.01300095 -5.47541176 10.71092927 -3 9 C-0.87491756 5.81237635 -0.4979837 3.73487777 0 0 Z " fill="#66A9F2" transform="translate(692,713)"/>
<path d="M0 0 C0.66 0 1.32 0 2 0 C2.26667677 7.3069434 1.29847657 13.9171426 -0.1875 21.0625 C-0.41381104 22.16432617 -0.64012207 23.26615234 -0.87329102 24.40136719 C-3.74409393 37.99268488 -7.79868287 50.554745 -14 63 C-14.66 62.34 -15.32 61.68 -16 61 C-15.63648438 60.37738281 -15.27296875 59.75476563 -14.8984375 59.11328125 C-6.52634737 43.72151555 -2.63397982 25.70527657 -0.875 8.375 C-0.74544922 7.15490234 -0.74544922 7.15490234 -0.61328125 5.91015625 C-0.40473324 3.94053614 -0.20175467 1.97032756 0 0 Z " fill="#54CAF0" transform="translate(993,833)"/>
<path d="M0 0 C0.66 0.33 1.32 0.66 2 1 C2 1.66 2 2.32 2 3 C-17.71537158 7.98510335 -35.64669881 10.36260506 -56 10 C-53.52003506 7.52003506 -52.77976942 7.75056517 -49.36328125 7.7265625 C-47.92456665 7.69973389 -47.92456665 7.69973389 -46.45678711 7.67236328 C-45.41917236 7.6567334 -44.38155762 7.64110352 -43.3125 7.625 C-34.55647756 7.37969612 -26.06791989 6.6376276 -17.4375 5.125 C-16.49366455 4.96338379 -15.5498291 4.80176758 -14.57739258 4.63525391 C-10.49175027 3.8767287 -6.76665072 3.02327608 -2.97265625 1.3046875 C-1.99167969 0.87414062 -1.01070312 0.44359375 0 0 Z " fill="#57C9F0" transform="translate(876,982)"/>
<path d="M0 0 C0.66 0.33 1.32 0.66 2 1 C1.07402389 3.06563902 0.32898764 4.70212008 -1.36328125 6.234375 C-3.65177587 8.70310905 -4.88888207 11.4215548 -6.375 14.4375 C-6.83181152 15.36151611 -6.83181152 15.36151611 -7.29785156 16.30419922 C-9.72105398 21.26908871 -11.85604696 26.32716295 -13.859375 31.4765625 C-14.98313847 33.96269675 -16.27919761 35.89350052 -18 38 C-17.49054251 31.94311651 -15.5847538 27.25112429 -12.9375 21.8125 C-12.53990479 20.98258545 -12.14230957 20.1526709 -11.73266602 19.29760742 C-8.37565896 12.44463223 -4.51446145 6.16279342 0 0 Z " fill="#8738E2" transform="translate(61,109)"/>
<path d="M0 0 C1.32 0.33 2.64 0.66 4 1 C-3.29669808 5.38941994 -10.62932474 9.45938328 -18.4375 12.875 C-19.08654297 13.16060791 -19.73558594 13.44621582 -20.40429688 13.74047852 C-24.54771045 15.51205342 -28.65656957 16.84548817 -33 18 C-33 17.34 -33 16.68 -33 16 C-32.02160156 15.61328125 -31.04320312 15.2265625 -30.03515625 14.828125 C-17.36816451 10.19802254 -17.36816451 10.19802254 -5.625 3.75 C-3 2 -3 2 0 2 C0 1.34 0 0.68 0 0 Z " fill="#53CAEF" transform="translate(912,966)"/>
<path d="M0 0 C0.66 0.33 1.32 0.66 2 1 C-1.96 3.97 -5.92 6.94 -10 10 C-10.66 9.67 -11.32 9.34 -12 9 C-10.68 8.34 -9.36 7.68 -8 7 C-8 6.01 -8 5.02 -8 4 C-7.4225 3.896875 -6.845 3.79375 -6.25 3.6875 C-3.67950842 2.90207202 -2.06342716 1.69495803 0 0 Z " fill="#50CAF0" transform="translate(928,956)"/>
<path d="M0 0 C-0.33 0.66 -0.66 1.32 -1 2 C-4.63 2 -8.26 2 -12 2 C-11.67 1.34 -11.34 0.68 -11 0 C-7.0832314 -1.23098442 -3.97610732 -0.83220851 0 0 Z " fill="#51B7F1" transform="translate(698,990)"/>
<path d="M0 0 C0.53625 0.226875 1.0725 0.45375 1.625 0.6875 C-5 3.8125 -5 3.8125 -8.375 2.6875 C-2.95961538 -0.38942308 -2.95961538 -0.38942308 0 0 Z " fill="#8436E0" transform="translate(145.375,45.3125)"/>
</svg>
